<mxfile host="app.diagrams.net" modified="2023-07-23T11:51:31.197Z" agent="Mozilla/5.0 (Macintosh; Intel Mac OS X 10_15_7) AppleWebKit/537.36 (KHTML, like Gecko) Chrome/114.0.0.0 Safari/537.36" etag="lIr70rhPzo-vMHrbfV4U" version="21.6.2" type="github">
  <diagram id="rYdwiMb5jvszhZctyrXV" name="第 1 页">
    <mxGraphModel dx="2332" dy="1136" grid="0" gridSize="10" guides="1" tooltips="1" connect="1" arrows="1" fold="1" page="0" pageScale="1" pageWidth="1920" pageHeight="1200" math="0" shadow="0">
      <root>
        <mxCell id="0" />
        <mxCell id="1" parent="0" />
        <mxCell id="03nautIme0JNub1uCO7q-31" value="" style="rounded=0;whiteSpace=wrap;html=1;horizontal=1;fillColor=#fff2cc;strokeColor=#d6b656;" parent="1" vertex="1">
          <mxGeometry x="415" y="517" width="300" height="237" as="geometry" />
        </mxCell>
        <mxCell id="6RyUIfgaUFoeRIO4xXDH-37" value="" style="rounded=0;whiteSpace=wrap;html=1;horizontal=1;fillColor=#fff2cc;strokeColor=#d6b656;" parent="1" vertex="1">
          <mxGeometry x="57" y="516" width="297" height="236" as="geometry" />
        </mxCell>
        <mxCell id="6RyUIfgaUFoeRIO4xXDH-11" value="" style="rounded=0;whiteSpace=wrap;html=1;fillColor=#fff2cc;strokeColor=#d6b656;" parent="1" vertex="1">
          <mxGeometry x="57" y="226" width="283" height="234" as="geometry" />
        </mxCell>
        <mxCell id="6RyUIfgaUFoeRIO4xXDH-1" value="&lt;p style=&quot;line-height: 150%;&quot;&gt;master0&lt;br&gt;(down)&lt;/p&gt;" style="ellipse;whiteSpace=wrap;html=1;aspect=fixed;fillColor=#a20025;fontColor=#ffffff;strokeColor=#6F0000;" parent="1" vertex="1">
          <mxGeometry x="67" y="246" width="80" height="80" as="geometry" />
        </mxCell>
        <mxCell id="6RyUIfgaUFoeRIO4xXDH-2" value="&lt;p style=&quot;line-height: 150%;&quot;&gt;slave0&lt;br&gt;(down)&lt;/p&gt;" style="ellipse;whiteSpace=wrap;html=1;aspect=fixed;fillColor=#a20025;fontColor=#ffffff;strokeColor=#6F0000;" parent="1" vertex="1">
          <mxGeometry x="67" y="369" width="80" height="80" as="geometry" />
        </mxCell>
        <mxCell id="6RyUIfgaUFoeRIO4xXDH-3" value="&lt;p style=&quot;line-height: 150%;&quot;&gt;master1&lt;br&gt;(down)&lt;/p&gt;" style="ellipse;whiteSpace=wrap;html=1;aspect=fixed;fillColor=#a20025;fontColor=#ffffff;strokeColor=#6F0000;" parent="1" vertex="1">
          <mxGeometry x="160" y="246" width="80" height="80" as="geometry" />
        </mxCell>
        <mxCell id="6RyUIfgaUFoeRIO4xXDH-4" value="&lt;p style=&quot;line-height: 150%;&quot;&gt;slave1&lt;br&gt;(down)&lt;/p&gt;" style="ellipse;whiteSpace=wrap;html=1;aspect=fixed;fillColor=#a20025;fontColor=#ffffff;strokeColor=#6F0000;" parent="1" vertex="1">
          <mxGeometry x="160" y="369" width="80" height="80" as="geometry" />
        </mxCell>
        <mxCell id="6RyUIfgaUFoeRIO4xXDH-5" value="&lt;p style=&quot;line-height: 150%;&quot;&gt;master2&lt;br&gt;(down)&lt;/p&gt;" style="ellipse;whiteSpace=wrap;html=1;aspect=fixed;fillColor=#a20025;fontColor=#ffffff;strokeColor=#6F0000;" parent="1" vertex="1">
          <mxGeometry x="249" y="246" width="80" height="80" as="geometry" />
        </mxCell>
        <mxCell id="6RyUIfgaUFoeRIO4xXDH-6" value="&lt;p style=&quot;line-height: 150%;&quot;&gt;slave2&lt;br&gt;(down)&lt;/p&gt;" style="ellipse;whiteSpace=wrap;html=1;aspect=fixed;fillColor=#a20025;fontColor=#ffffff;strokeColor=#6F0000;" parent="1" vertex="1">
          <mxGeometry x="249" y="369" width="80" height="80" as="geometry" />
        </mxCell>
        <mxCell id="6RyUIfgaUFoeRIO4xXDH-59" style="edgeStyle=orthogonalEdgeStyle;rounded=0;orthogonalLoop=1;jettySize=auto;html=1;exitX=0.5;exitY=1;exitDx=0;exitDy=0;dashed=1;entryX=0.523;entryY=1.002;entryDx=0;entryDy=0;entryPerimeter=0;" parent="1" source="6RyUIfgaUFoeRIO4xXDH-7" target="6RyUIfgaUFoeRIO4xXDH-41" edge="1">
          <mxGeometry relative="1" as="geometry">
            <mxPoint x="-98" y="698" as="targetPoint" />
            <Array as="points">
              <mxPoint x="384" y="771" />
              <mxPoint x="193" y="771" />
              <mxPoint x="193" y="734" />
            </Array>
            <mxPoint x="273" y="-4" as="sourcePoint" />
          </mxGeometry>
        </mxCell>
        <mxCell id="6RyUIfgaUFoeRIO4xXDH-20" value="&lt;p style=&quot;line-height: 150%;&quot;&gt;1. 健康检查，发现全部节点宕机&lt;/p&gt;" style="text;html=1;strokeColor=none;fillColor=none;align=center;verticalAlign=middle;whiteSpace=wrap;rounded=0;" parent="1" vertex="1">
          <mxGeometry x="190.95000000000005" y="167" width="183.09" height="30" as="geometry" />
        </mxCell>
        <mxCell id="6RyUIfgaUFoeRIO4xXDH-23" value="" style="rounded=0;whiteSpace=wrap;html=1;fillColor=#fff2cc;strokeColor=#d6b656;" parent="1" vertex="1">
          <mxGeometry x="418" y="227" width="296" height="237" as="geometry" />
        </mxCell>
        <mxCell id="6RyUIfgaUFoeRIO4xXDH-28" value="master2" style="ellipse;whiteSpace=wrap;html=1;aspect=fixed;fillColor=#008a00;fontColor=#ffffff;strokeColor=#005700;" parent="1" vertex="1">
          <mxGeometry x="612" y="254" width="80" height="80" as="geometry" />
        </mxCell>
        <mxCell id="6RyUIfgaUFoeRIO4xXDH-38" value="master0" style="ellipse;whiteSpace=wrap;html=1;aspect=fixed;fillColor=#008a00;fontColor=#ffffff;strokeColor=#005700;" parent="1" vertex="1">
          <mxGeometry x="63.5" y="531" width="80" height="80" as="geometry" />
        </mxCell>
        <mxCell id="03nautIme0JNub1uCO7q-24" style="edgeStyle=orthogonalEdgeStyle;rounded=0;orthogonalLoop=1;jettySize=auto;html=1;exitX=0.5;exitY=0;exitDx=0;exitDy=0;entryX=0.5;entryY=1;entryDx=0;entryDy=0;dashed=1;" parent="1" source="6RyUIfgaUFoeRIO4xXDH-39" target="6RyUIfgaUFoeRIO4xXDH-38" edge="1">
          <mxGeometry relative="1" as="geometry" />
        </mxCell>
        <mxCell id="6RyUIfgaUFoeRIO4xXDH-39" value="slave0" style="ellipse;whiteSpace=wrap;html=1;aspect=fixed;fillColor=#d5e8d4;strokeColor=#82b366;" parent="1" vertex="1">
          <mxGeometry x="63.5" y="654" width="80" height="80" as="geometry" />
        </mxCell>
        <mxCell id="6RyUIfgaUFoeRIO4xXDH-40" value="master1" style="ellipse;whiteSpace=wrap;html=1;aspect=fixed;fillColor=#008a00;fontColor=#ffffff;strokeColor=#005700;" parent="1" vertex="1">
          <mxGeometry x="152.5" y="531" width="80" height="80" as="geometry" />
        </mxCell>
        <mxCell id="03nautIme0JNub1uCO7q-26" style="edgeStyle=orthogonalEdgeStyle;rounded=0;orthogonalLoop=1;jettySize=auto;html=1;exitX=0.5;exitY=0;exitDx=0;exitDy=0;entryX=0.5;entryY=1;entryDx=0;entryDy=0;dashed=1;" parent="1" source="6RyUIfgaUFoeRIO4xXDH-41" target="6RyUIfgaUFoeRIO4xXDH-40" edge="1">
          <mxGeometry relative="1" as="geometry" />
        </mxCell>
        <mxCell id="6RyUIfgaUFoeRIO4xXDH-41" value="slave1" style="ellipse;whiteSpace=wrap;html=1;aspect=fixed;fillColor=#d5e8d4;strokeColor=#82b366;" parent="1" vertex="1">
          <mxGeometry x="152.5" y="654" width="80" height="80" as="geometry" />
        </mxCell>
        <mxCell id="6RyUIfgaUFoeRIO4xXDH-42" value="master2" style="ellipse;whiteSpace=wrap;html=1;aspect=fixed;fillColor=#008a00;fontColor=#ffffff;strokeColor=#005700;" parent="1" vertex="1">
          <mxGeometry x="243.5" y="531" width="80" height="80" as="geometry" />
        </mxCell>
        <mxCell id="03nautIme0JNub1uCO7q-27" value="" style="edgeStyle=orthogonalEdgeStyle;rounded=0;orthogonalLoop=1;jettySize=auto;html=1;dashed=1;" parent="1" source="6RyUIfgaUFoeRIO4xXDH-43" target="6RyUIfgaUFoeRIO4xXDH-42" edge="1">
          <mxGeometry relative="1" as="geometry" />
        </mxCell>
        <mxCell id="6RyUIfgaUFoeRIO4xXDH-43" value="slave2" style="ellipse;whiteSpace=wrap;html=1;aspect=fixed;fillColor=#d5e8d4;strokeColor=#82b366;" parent="1" vertex="1">
          <mxGeometry x="243.5" y="654" width="80" height="80" as="geometry" />
        </mxCell>
        <mxCell id="6RyUIfgaUFoeRIO4xXDH-51" value="4 从节点复制主节点" style="text;html=1;strokeColor=none;fillColor=none;align=center;verticalAlign=middle;whiteSpace=wrap;rounded=0;" parent="1" vertex="1">
          <mxGeometry x="243.5" y="774" width="111" height="25" as="geometry" />
        </mxCell>
        <mxCell id="6RyUIfgaUFoeRIO4xXDH-54" value="主从复制" style="text;html=1;strokeColor=none;fillColor=none;align=center;verticalAlign=middle;whiteSpace=wrap;rounded=0;" parent="1" vertex="1">
          <mxGeometry x="102.5" y="625" width="75" height="16" as="geometry" />
        </mxCell>
        <mxCell id="6RyUIfgaUFoeRIO4xXDH-55" value="主从复制" style="text;html=1;strokeColor=none;fillColor=none;align=center;verticalAlign=middle;whiteSpace=wrap;rounded=0;" parent="1" vertex="1">
          <mxGeometry x="190.5" y="628" width="75" height="16" as="geometry" />
        </mxCell>
        <mxCell id="6RyUIfgaUFoeRIO4xXDH-62" value="&lt;p style=&quot;line-height: 150%;&quot;&gt;5&amp;nbsp;节点间握手，集群状态恢复&lt;/p&gt;" style="text;html=1;strokeColor=none;fillColor=none;align=center;verticalAlign=middle;whiteSpace=wrap;rounded=0;" parent="1" vertex="1">
          <mxGeometry x="392.40999999999997" y="777.5" width="163" height="18" as="geometry" />
        </mxCell>
        <mxCell id="6RyUIfgaUFoeRIO4xXDH-64" style="edgeStyle=orthogonalEdgeStyle;rounded=0;orthogonalLoop=1;jettySize=auto;html=1;exitX=0.5;exitY=1;exitDx=0;exitDy=0;dashed=1;entryX=0.5;entryY=1;entryDx=0;entryDy=0;" parent="1" source="6RyUIfgaUFoeRIO4xXDH-7" target="6RyUIfgaUFoeRIO4xXDH-1" edge="1">
          <mxGeometry relative="1" as="geometry">
            <mxPoint x="106" y="334" as="targetPoint" />
            <Array as="points">
              <mxPoint x="384" y="360" />
              <mxPoint x="106" y="360" />
            </Array>
          </mxGeometry>
        </mxCell>
        <mxCell id="6RyUIfgaUFoeRIO4xXDH-66" style="edgeStyle=orthogonalEdgeStyle;rounded=0;orthogonalLoop=1;jettySize=auto;html=1;exitX=0.5;exitY=1;exitDx=0;exitDy=0;dashed=1;" parent="1" source="6RyUIfgaUFoeRIO4xXDH-7" target="6RyUIfgaUFoeRIO4xXDH-11" edge="1">
          <mxGeometry relative="1" as="geometry" />
        </mxCell>
        <mxCell id="6RyUIfgaUFoeRIO4xXDH-70" style="edgeStyle=orthogonalEdgeStyle;rounded=0;orthogonalLoop=1;jettySize=auto;html=1;exitX=0.5;exitY=1;exitDx=0;exitDy=0;dashed=1;" parent="1" source="6RyUIfgaUFoeRIO4xXDH-7" target="6RyUIfgaUFoeRIO4xXDH-3" edge="1">
          <mxGeometry relative="1" as="geometry">
            <mxPoint x="-91" y="344" as="targetPoint" />
            <Array as="points">
              <mxPoint x="384" y="360" />
              <mxPoint x="200" y="360" />
            </Array>
            <mxPoint x="278" y="-4" as="sourcePoint" />
          </mxGeometry>
        </mxCell>
        <mxCell id="6RyUIfgaUFoeRIO4xXDH-73" style="edgeStyle=orthogonalEdgeStyle;rounded=0;orthogonalLoop=1;jettySize=auto;html=1;exitX=0.5;exitY=1;exitDx=0;exitDy=0;dashed=1;entryX=0.5;entryY=1;entryDx=0;entryDy=0;" parent="1" source="6RyUIfgaUFoeRIO4xXDH-7" target="03nautIme0JNub1uCO7q-12" edge="1">
          <mxGeometry relative="1" as="geometry">
            <Array as="points">
              <mxPoint x="385" y="200" />
              <mxPoint x="385" y="200" />
              <mxPoint x="385" y="491" />
              <mxPoint x="466" y="491" />
            </Array>
            <mxPoint x="922" y="480" as="targetPoint" />
          </mxGeometry>
        </mxCell>
        <mxCell id="6RyUIfgaUFoeRIO4xXDH-77" style="edgeStyle=orthogonalEdgeStyle;rounded=0;orthogonalLoop=1;jettySize=auto;html=1;exitX=0.5;exitY=1;exitDx=0;exitDy=0;dashed=1;entryX=0.529;entryY=0.981;entryDx=0;entryDy=0;entryPerimeter=0;" parent="1" edge="1">
          <mxGeometry relative="1" as="geometry">
            <mxPoint x="575.8200000000002" y="451.48" as="targetPoint" />
            <Array as="points">
              <mxPoint x="384" y="167" />
              <mxPoint x="384" y="491" />
              <mxPoint x="576" y="491" />
              <mxPoint x="576" y="462" />
              <mxPoint x="576" y="462" />
            </Array>
            <mxPoint x="383" y="167" as="sourcePoint" />
          </mxGeometry>
        </mxCell>
        <mxCell id="03nautIme0JNub1uCO7q-1" style="edgeStyle=orthogonalEdgeStyle;rounded=0;orthogonalLoop=1;jettySize=auto;html=1;exitX=0.5;exitY=1;exitDx=0;exitDy=0;dashed=1;" parent="1" source="6RyUIfgaUFoeRIO4xXDH-7" target="6RyUIfgaUFoeRIO4xXDH-5" edge="1">
          <mxGeometry relative="1" as="geometry">
            <mxPoint x="-112" y="330" as="targetPoint" />
            <Array as="points">
              <mxPoint x="384" y="359" />
              <mxPoint x="289" y="359" />
            </Array>
            <mxPoint x="238" y="-4" as="sourcePoint" />
          </mxGeometry>
        </mxCell>
        <mxCell id="03nautIme0JNub1uCO7q-18" style="edgeStyle=orthogonalEdgeStyle;rounded=0;orthogonalLoop=1;jettySize=auto;html=1;exitX=0.5;exitY=1;exitDx=0;exitDy=0;dashed=1;entryX=0.5;entryY=1;entryDx=0;entryDy=0;" parent="1" source="6RyUIfgaUFoeRIO4xXDH-7" target="03nautIme0JNub1uCO7q-14" edge="1">
          <mxGeometry relative="1" as="geometry">
            <mxPoint x="837" y="477" as="targetPoint" />
            <Array as="points">
              <mxPoint x="385" y="491" />
              <mxPoint x="652" y="491" />
            </Array>
            <mxPoint x="459.5000000000002" y="-5" as="sourcePoint" />
          </mxGeometry>
        </mxCell>
        <mxCell id="03nautIme0JNub1uCO7q-50" style="edgeStyle=orthogonalEdgeStyle;rounded=0;orthogonalLoop=1;jettySize=auto;html=1;exitX=0.5;exitY=1;exitDx=0;exitDy=0;dashed=1;entryX=0.5;entryY=1;entryDx=0;entryDy=0;" parent="1" source="6RyUIfgaUFoeRIO4xXDH-7" target="6RyUIfgaUFoeRIO4xXDH-39" edge="1">
          <mxGeometry relative="1" as="geometry">
            <mxPoint x="-137.81818181818198" y="916.9090909090905" as="targetPoint" />
            <Array as="points">
              <mxPoint x="384" y="771" />
              <mxPoint x="103" y="771" />
              <mxPoint x="103" y="734" />
            </Array>
          </mxGeometry>
        </mxCell>
        <mxCell id="03nautIme0JNub1uCO7q-51" style="edgeStyle=orthogonalEdgeStyle;rounded=0;orthogonalLoop=1;jettySize=auto;html=1;exitX=0.5;exitY=1;exitDx=0;exitDy=0;dashed=1;entryX=0.5;entryY=1;entryDx=0;entryDy=0;" parent="1" source="6RyUIfgaUFoeRIO4xXDH-7" target="6RyUIfgaUFoeRIO4xXDH-43" edge="1">
          <mxGeometry relative="1" as="geometry">
            <mxPoint x="-211.909090909091" y="929.6363636363635" as="targetPoint" />
            <Array as="points">
              <mxPoint x="384" y="771" />
              <mxPoint x="283" y="771" />
              <mxPoint x="283" y="746" />
            </Array>
            <mxPoint x="235" y="-4" as="sourcePoint" />
          </mxGeometry>
        </mxCell>
        <mxCell id="03nautIme0JNub1uCO7q-55" style="edgeStyle=orthogonalEdgeStyle;rounded=0;orthogonalLoop=1;jettySize=auto;html=1;exitX=0.5;exitY=1;exitDx=0;exitDy=0;dashed=1;entryX=0.5;entryY=1;entryDx=0;entryDy=0;" parent="1" source="6RyUIfgaUFoeRIO4xXDH-7" target="03nautIme0JNub1uCO7q-37" edge="1">
          <mxGeometry relative="1" as="geometry">
            <mxPoint x="636" y="1007" as="targetPoint" />
            <Array as="points">
              <mxPoint x="385" y="771" />
              <mxPoint x="553" y="771" />
              <mxPoint x="553" y="739" />
            </Array>
            <mxPoint x="499.5" y="-4" as="sourcePoint" />
          </mxGeometry>
        </mxCell>
        <mxCell id="6RyUIfgaUFoeRIO4xXDH-7" value="redis-operator" style="rounded=1;whiteSpace=wrap;html=1;fillColor=#b1ddf0;strokeColor=#10739e;" parent="1" vertex="1">
          <mxGeometry x="317" y="112" width="135" height="55" as="geometry" />
        </mxCell>
        <mxCell id="6RyUIfgaUFoeRIO4xXDH-71" value="2 拉起主节点，分配slot" style="text;html=1;strokeColor=none;fillColor=none;align=center;verticalAlign=middle;whiteSpace=wrap;rounded=0;" parent="1" vertex="1">
          <mxGeometry x="206" y="322" width="79" height="37" as="geometry" />
        </mxCell>
        <mxCell id="6RyUIfgaUFoeRIO4xXDH-81" value="redis集群" style="text;html=1;strokeColor=none;fillColor=none;align=center;verticalAlign=middle;whiteSpace=wrap;rounded=0;" parent="1" vertex="1">
          <mxGeometry x="175" y="221" width="60" height="30" as="geometry" />
        </mxCell>
        <mxCell id="6RyUIfgaUFoeRIO4xXDH-85" value="redis集群" style="text;html=1;strokeColor=none;fillColor=none;align=center;verticalAlign=middle;whiteSpace=wrap;rounded=0;" parent="1" vertex="1">
          <mxGeometry x="165" y="508" width="60" height="30" as="geometry" />
        </mxCell>
        <mxCell id="6RyUIfgaUFoeRIO4xXDH-89" value="redis集群" style="text;html=1;strokeColor=none;fillColor=none;align=center;verticalAlign=middle;whiteSpace=wrap;rounded=0;" parent="1" vertex="1">
          <mxGeometry x="527.5" y="226" width="60" height="30" as="geometry" />
        </mxCell>
        <mxCell id="03nautIme0JNub1uCO7q-4" value="master1" style="ellipse;whiteSpace=wrap;html=1;aspect=fixed;fillColor=#008a00;fontColor=#ffffff;strokeColor=#005700;" parent="1" vertex="1">
          <mxGeometry x="516" y="255" width="80" height="80" as="geometry" />
        </mxCell>
        <mxCell id="03nautIme0JNub1uCO7q-5" value="master0" style="ellipse;whiteSpace=wrap;html=1;aspect=fixed;fillColor=#008a00;fontColor=#ffffff;strokeColor=#005700;" parent="1" vertex="1">
          <mxGeometry x="426" y="256" width="80" height="80" as="geometry" />
        </mxCell>
        <mxCell id="03nautIme0JNub1uCO7q-8" value="slot:[0-5461]" style="text;html=1;strokeColor=none;fillColor=none;align=center;verticalAlign=middle;whiteSpace=wrap;rounded=0;" parent="1" vertex="1">
          <mxGeometry x="426" y="339" width="80" height="30" as="geometry" />
        </mxCell>
        <mxCell id="03nautIme0JNub1uCO7q-9" value="slot:[5462-10922]" style="text;html=1;strokeColor=none;fillColor=none;align=center;verticalAlign=middle;whiteSpace=wrap;rounded=0;" parent="1" vertex="1">
          <mxGeometry x="507" y="339" width="101" height="30" as="geometry" />
        </mxCell>
        <mxCell id="03nautIme0JNub1uCO7q-10" value="slot:[10923-16383]" style="text;html=1;strokeColor=none;fillColor=none;align=center;verticalAlign=middle;whiteSpace=wrap;rounded=0;" parent="1" vertex="1">
          <mxGeometry x="607" y="339" width="110" height="30" as="geometry" />
        </mxCell>
        <mxCell id="03nautIme0JNub1uCO7q-12" value="&lt;p style=&quot;line-height: 150%;&quot;&gt;slave0&lt;br&gt;(down)&lt;/p&gt;" style="ellipse;whiteSpace=wrap;html=1;aspect=fixed;fillColor=#a20025;fontColor=#ffffff;strokeColor=#6F0000;" parent="1" vertex="1">
          <mxGeometry x="426" y="374" width="80" height="80" as="geometry" />
        </mxCell>
        <mxCell id="03nautIme0JNub1uCO7q-13" value="&lt;p style=&quot;line-height: 150%;&quot;&gt;slave1&lt;br&gt;(down)&lt;/p&gt;" style="ellipse;whiteSpace=wrap;html=1;aspect=fixed;fillColor=#a20025;fontColor=#ffffff;strokeColor=#6F0000;" parent="1" vertex="1">
          <mxGeometry x="521" y="373" width="80" height="80" as="geometry" />
        </mxCell>
        <mxCell id="03nautIme0JNub1uCO7q-14" value="&lt;p style=&quot;line-height: 150%;&quot;&gt;slave2&lt;br&gt;(down)&lt;/p&gt;" style="ellipse;whiteSpace=wrap;html=1;aspect=fixed;fillColor=#a20025;fontColor=#ffffff;strokeColor=#6F0000;" parent="1" vertex="1">
          <mxGeometry x="612" y="371" width="80" height="80" as="geometry" />
        </mxCell>
        <mxCell id="03nautIme0JNub1uCO7q-19" value="3 拉起从节点" style="text;html=1;strokeColor=none;fillColor=none;align=center;verticalAlign=middle;whiteSpace=wrap;rounded=0;" parent="1" vertex="1">
          <mxGeometry x="474.0000000000001" y="467" width="81" height="23" as="geometry" />
        </mxCell>
        <mxCell id="03nautIme0JNub1uCO7q-29" value="主从复制" style="text;html=1;strokeColor=none;fillColor=none;align=center;verticalAlign=middle;whiteSpace=wrap;rounded=0;" parent="1" vertex="1">
          <mxGeometry x="287.5" y="628" width="75" height="16" as="geometry" />
        </mxCell>
        <mxCell id="03nautIme0JNub1uCO7q-32" value="master0" style="ellipse;whiteSpace=wrap;html=1;aspect=fixed;fillColor=#008a00;fontColor=#ffffff;strokeColor=#005700;" parent="1" vertex="1">
          <mxGeometry x="420" y="536" width="80" height="80" as="geometry" />
        </mxCell>
        <mxCell id="03nautIme0JNub1uCO7q-34" value="slave0" style="ellipse;whiteSpace=wrap;html=1;aspect=fixed;fillColor=#d5e8d4;strokeColor=#82b366;" parent="1" vertex="1">
          <mxGeometry x="420" y="659" width="80" height="80" as="geometry" />
        </mxCell>
        <mxCell id="03nautIme0JNub1uCO7q-35" value="master1" style="ellipse;whiteSpace=wrap;html=1;aspect=fixed;fillColor=#008a00;fontColor=#ffffff;strokeColor=#005700;" parent="1" vertex="1">
          <mxGeometry x="514" y="536" width="80" height="80" as="geometry" />
        </mxCell>
        <mxCell id="03nautIme0JNub1uCO7q-36" style="edgeStyle=orthogonalEdgeStyle;rounded=0;orthogonalLoop=1;jettySize=auto;html=1;exitX=0.5;exitY=0;exitDx=0;exitDy=0;entryX=0.5;entryY=1;entryDx=0;entryDy=0;dashed=1;startArrow=classic;startFill=1;" parent="1" source="03nautIme0JNub1uCO7q-37" target="03nautIme0JNub1uCO7q-35" edge="1">
          <mxGeometry relative="1" as="geometry" />
        </mxCell>
        <mxCell id="03nautIme0JNub1uCO7q-72" value="meet" style="edgeLabel;html=1;align=center;verticalAlign=middle;resizable=0;points=[];" parent="03nautIme0JNub1uCO7q-36" vertex="1" connectable="0">
          <mxGeometry x="-0.3023" y="3" relative="1" as="geometry">
            <mxPoint x="2" y="-9" as="offset" />
          </mxGeometry>
        </mxCell>
        <mxCell id="03nautIme0JNub1uCO7q-58" value="meet" style="edgeStyle=orthogonalEdgeStyle;rounded=0;orthogonalLoop=1;jettySize=auto;html=1;exitX=1;exitY=0.5;exitDx=0;exitDy=0;entryX=0;entryY=0.5;entryDx=0;entryDy=0;dashed=1;startArrow=classic;startFill=1;" parent="1" source="03nautIme0JNub1uCO7q-37" target="03nautIme0JNub1uCO7q-40" edge="1">
          <mxGeometry relative="1" as="geometry" />
        </mxCell>
        <mxCell id="03nautIme0JNub1uCO7q-37" value="slave1" style="ellipse;whiteSpace=wrap;html=1;aspect=fixed;fillColor=#d5e8d4;strokeColor=#82b366;" parent="1" vertex="1">
          <mxGeometry x="514" y="659" width="80" height="80" as="geometry" />
        </mxCell>
        <mxCell id="03nautIme0JNub1uCO7q-38" value="master2" style="ellipse;whiteSpace=wrap;html=1;aspect=fixed;fillColor=#008a00;fontColor=#ffffff;strokeColor=#005700;" parent="1" vertex="1">
          <mxGeometry x="610" y="536" width="80" height="80" as="geometry" />
        </mxCell>
        <mxCell id="03nautIme0JNub1uCO7q-40" value="slave2" style="ellipse;whiteSpace=wrap;html=1;aspect=fixed;fillColor=#d5e8d4;strokeColor=#82b366;" parent="1" vertex="1">
          <mxGeometry x="610" y="659" width="80" height="80" as="geometry" />
        </mxCell>
        <mxCell id="03nautIme0JNub1uCO7q-43" value="redis集群" style="text;html=1;strokeColor=none;fillColor=none;align=center;verticalAlign=middle;whiteSpace=wrap;rounded=0;" parent="1" vertex="1">
          <mxGeometry x="528" y="513" width="60" height="30" as="geometry" />
        </mxCell>
        <mxCell id="03nautIme0JNub1uCO7q-70" style="edgeStyle=orthogonalEdgeStyle;rounded=0;orthogonalLoop=1;jettySize=auto;html=1;exitX=0.5;exitY=1;exitDx=0;exitDy=0;dashed=1;" parent="1" source="6RyUIfgaUFoeRIO4xXDH-62" target="6RyUIfgaUFoeRIO4xXDH-62" edge="1">
          <mxGeometry relative="1" as="geometry" />
        </mxCell>
        <mxCell id="hIip7Isc6xBCy5QCjvj0-9" value="" style="curved=1;endArrow=classic;html=1;rounded=0;dashed=1;startArrow=classic;startFill=1;exitX=0.5;exitY=0;exitDx=0;exitDy=0;" parent="1" source="03nautIme0JNub1uCO7q-34" edge="1">
          <mxGeometry width="50" height="50" relative="1" as="geometry">
            <mxPoint x="458" y="739" as="sourcePoint" />
            <mxPoint x="553" y="657" as="targetPoint" />
            <Array as="points">
              <mxPoint x="502" y="637" />
            </Array>
          </mxGeometry>
        </mxCell>
        <mxCell id="hIip7Isc6xBCy5QCjvj0-10" value="meet" style="edgeLabel;html=1;align=center;verticalAlign=middle;resizable=0;points=[];" parent="hIip7Isc6xBCy5QCjvj0-9" vertex="1" connectable="0">
          <mxGeometry x="-0.0419" y="2" relative="1" as="geometry">
            <mxPoint x="4" y="9" as="offset" />
          </mxGeometry>
        </mxCell>
        <mxCell id="hIip7Isc6xBCy5QCjvj0-13" value="" style="curved=1;endArrow=classic;html=1;rounded=0;entryX=0;entryY=1;entryDx=0;entryDy=0;dashed=1;startArrow=classic;startFill=1;exitX=0.5;exitY=0;exitDx=0;exitDy=0;" parent="1" source="03nautIme0JNub1uCO7q-37" edge="1">
          <mxGeometry width="50" height="50" relative="1" as="geometry">
            <mxPoint x="554.5" y="616" as="sourcePoint" />
            <mxPoint x="622.5" y="604" as="targetPoint" />
            <Array as="points">
              <mxPoint x="591" y="604" />
            </Array>
          </mxGeometry>
        </mxCell>
        <mxCell id="hIip7Isc6xBCy5QCjvj0-14" value="meet" style="edgeLabel;html=1;align=center;verticalAlign=middle;resizable=0;points=[];" parent="hIip7Isc6xBCy5QCjvj0-13" vertex="1" connectable="0">
          <mxGeometry x="-0.0419" y="2" relative="1" as="geometry">
            <mxPoint x="5" as="offset" />
          </mxGeometry>
        </mxCell>
        <mxCell id="hIip7Isc6xBCy5QCjvj0-15" value="" style="curved=1;endArrow=classic;html=1;rounded=0;entryX=0.5;entryY=0;entryDx=0;entryDy=0;dashed=1;startArrow=classic;startFill=1;" parent="1" target="03nautIme0JNub1uCO7q-37" edge="1">
          <mxGeometry width="50" height="50" relative="1" as="geometry">
            <mxPoint x="459.40999999999997" y="616" as="sourcePoint" />
            <mxPoint x="527.41" y="604" as="targetPoint" />
            <Array as="points">
              <mxPoint x="509.40999999999997" y="616" />
            </Array>
          </mxGeometry>
        </mxCell>
        <mxCell id="hIip7Isc6xBCy5QCjvj0-16" value="meet" style="edgeLabel;html=1;align=center;verticalAlign=middle;resizable=0;points=[];" parent="hIip7Isc6xBCy5QCjvj0-15" vertex="1" connectable="0">
          <mxGeometry x="-0.0419" y="2" relative="1" as="geometry">
            <mxPoint x="-7" y="5" as="offset" />
          </mxGeometry>
        </mxCell>
        <mxCell id="hIip7Isc6xBCy5QCjvj0-19" value="" style="curved=1;endArrow=classic;html=1;rounded=0;dashed=1;startArrow=classic;startFill=1;exitX=0.5;exitY=0;exitDx=0;exitDy=0;entryX=0.5;entryY=0;entryDx=0;entryDy=0;" parent="1" target="03nautIme0JNub1uCO7q-40" edge="1">
          <mxGeometry width="50" height="50" relative="1" as="geometry">
            <mxPoint x="554" y="659" as="sourcePoint" />
            <mxPoint x="647" y="657" as="targetPoint" />
            <Array as="points">
              <mxPoint x="596" y="637" />
            </Array>
          </mxGeometry>
        </mxCell>
        <mxCell id="hIip7Isc6xBCy5QCjvj0-20" value="meet" style="edgeLabel;html=1;align=center;verticalAlign=middle;resizable=0;points=[];" parent="hIip7Isc6xBCy5QCjvj0-19" vertex="1" connectable="0">
          <mxGeometry x="-0.0419" y="2" relative="1" as="geometry">
            <mxPoint x="4" y="9" as="offset" />
          </mxGeometry>
        </mxCell>
        <mxCell id="tuQUhaSpqRAPnJcrvdYX-44" value="" style="rounded=0;whiteSpace=wrap;html=1;horizontal=1;fillColor=#fff2cc;strokeColor=#d6b656;" vertex="1" parent="1">
          <mxGeometry x="895" y="524" width="297" height="236" as="geometry" />
        </mxCell>
        <mxCell id="tuQUhaSpqRAPnJcrvdYX-45" value="" style="rounded=0;whiteSpace=wrap;html=1;fillColor=#fff2cc;strokeColor=#d6b656;" vertex="1" parent="1">
          <mxGeometry x="895" y="234" width="283" height="234" as="geometry" />
        </mxCell>
        <mxCell id="tuQUhaSpqRAPnJcrvdYX-46" value="&lt;p style=&quot;line-height: 150%;&quot;&gt;master0&lt;br&gt;(down)&lt;/p&gt;" style="ellipse;whiteSpace=wrap;html=1;aspect=fixed;fillColor=#a20025;fontColor=#ffffff;strokeColor=#6F0000;" vertex="1" parent="1">
          <mxGeometry x="905" y="254" width="80" height="80" as="geometry" />
        </mxCell>
        <mxCell id="tuQUhaSpqRAPnJcrvdYX-47" value="&lt;p style=&quot;line-height: 150%;&quot;&gt;slave0&lt;/p&gt;" style="ellipse;whiteSpace=wrap;html=1;aspect=fixed;fillColor=#d5e8d4;strokeColor=#82b366;" vertex="1" parent="1">
          <mxGeometry x="905" y="377" width="80" height="80" as="geometry" />
        </mxCell>
        <mxCell id="tuQUhaSpqRAPnJcrvdYX-48" value="&lt;p style=&quot;line-height: 150%;&quot;&gt;master1&lt;br&gt;(down)&lt;/p&gt;" style="ellipse;whiteSpace=wrap;html=1;aspect=fixed;fillColor=#a20025;fontColor=#ffffff;strokeColor=#6F0000;" vertex="1" parent="1">
          <mxGeometry x="998" y="254" width="80" height="80" as="geometry" />
        </mxCell>
        <mxCell id="tuQUhaSpqRAPnJcrvdYX-49" value="&lt;p style=&quot;line-height: 150%;&quot;&gt;slave1&lt;/p&gt;" style="ellipse;whiteSpace=wrap;html=1;aspect=fixed;fillColor=#d5e8d4;strokeColor=#82b366;" vertex="1" parent="1">
          <mxGeometry x="998" y="377" width="80" height="80" as="geometry" />
        </mxCell>
        <mxCell id="tuQUhaSpqRAPnJcrvdYX-50" value="&lt;p style=&quot;line-height: 150%;&quot;&gt;master2&lt;br&gt;&lt;/p&gt;" style="ellipse;whiteSpace=wrap;html=1;aspect=fixed;fillColor=#008a00;fontColor=#ffffff;strokeColor=#005700;" vertex="1" parent="1">
          <mxGeometry x="1087" y="254" width="80" height="80" as="geometry" />
        </mxCell>
        <mxCell id="tuQUhaSpqRAPnJcrvdYX-51" value="&lt;p style=&quot;line-height: 150%;&quot;&gt;slave2&lt;br&gt;&lt;/p&gt;" style="ellipse;whiteSpace=wrap;html=1;aspect=fixed;fillColor=#d5e8d4;strokeColor=#82b366;" vertex="1" parent="1">
          <mxGeometry x="1087" y="377" width="80" height="80" as="geometry" />
        </mxCell>
        <mxCell id="tuQUhaSpqRAPnJcrvdYX-53" value="&lt;p style=&quot;line-height: 150%;&quot;&gt;1. 健康检查，发现过半主节点宕机&lt;/p&gt;" style="text;html=1;strokeColor=none;fillColor=none;align=center;verticalAlign=middle;whiteSpace=wrap;rounded=0;" vertex="1" parent="1">
          <mxGeometry x="1012" y="175" width="200.04" height="30" as="geometry" />
        </mxCell>
        <mxCell id="tuQUhaSpqRAPnJcrvdYX-54" value="" style="rounded=0;whiteSpace=wrap;html=1;fillColor=#fff2cc;strokeColor=#d6b656;" vertex="1" parent="1">
          <mxGeometry x="1256" y="230" width="286" height="237" as="geometry" />
        </mxCell>
        <mxCell id="tuQUhaSpqRAPnJcrvdYX-55" value="master2" style="ellipse;whiteSpace=wrap;html=1;aspect=fixed;fillColor=#008a00;fontColor=#ffffff;strokeColor=#005700;" vertex="1" parent="1">
          <mxGeometry x="1450" y="241" width="80" height="80" as="geometry" />
        </mxCell>
        <mxCell id="tuQUhaSpqRAPnJcrvdYX-56" value="master0" style="ellipse;whiteSpace=wrap;html=1;aspect=fixed;fillColor=#d5e8d4;strokeColor=#82b366;" vertex="1" parent="1">
          <mxGeometry x="901.5" y="539" width="80" height="80" as="geometry" />
        </mxCell>
        <mxCell id="tuQUhaSpqRAPnJcrvdYX-57" style="edgeStyle=orthogonalEdgeStyle;rounded=0;orthogonalLoop=1;jettySize=auto;html=1;exitX=0.5;exitY=0;exitDx=0;exitDy=0;entryX=0.5;entryY=1;entryDx=0;entryDy=0;dashed=1;endArrow=none;endFill=0;startArrow=classic;startFill=1;" edge="1" parent="1" target="tuQUhaSpqRAPnJcrvdYX-56">
          <mxGeometry relative="1" as="geometry">
            <mxPoint x="941.5" y="662" as="sourcePoint" />
          </mxGeometry>
        </mxCell>
        <mxCell id="tuQUhaSpqRAPnJcrvdYX-59" value="master1" style="ellipse;whiteSpace=wrap;html=1;aspect=fixed;fillColor=#d5e8d4;strokeColor=#82b366;" vertex="1" parent="1">
          <mxGeometry x="990.5" y="539" width="80" height="80" as="geometry" />
        </mxCell>
        <mxCell id="tuQUhaSpqRAPnJcrvdYX-60" style="edgeStyle=orthogonalEdgeStyle;rounded=0;orthogonalLoop=1;jettySize=auto;html=1;exitX=0.5;exitY=0;exitDx=0;exitDy=0;entryX=0.5;entryY=1;entryDx=0;entryDy=0;dashed=1;endArrow=none;endFill=0;startArrow=classic;startFill=1;" edge="1" parent="1" target="tuQUhaSpqRAPnJcrvdYX-59">
          <mxGeometry relative="1" as="geometry">
            <mxPoint x="1030.5" y="662" as="sourcePoint" />
          </mxGeometry>
        </mxCell>
        <mxCell id="tuQUhaSpqRAPnJcrvdYX-62" value="master2" style="ellipse;whiteSpace=wrap;html=1;aspect=fixed;fillColor=#008a00;fontColor=#ffffff;strokeColor=#005700;" vertex="1" parent="1">
          <mxGeometry x="1081.5" y="539" width="80" height="80" as="geometry" />
        </mxCell>
        <mxCell id="tuQUhaSpqRAPnJcrvdYX-63" value="" style="edgeStyle=orthogonalEdgeStyle;rounded=0;orthogonalLoop=1;jettySize=auto;html=1;dashed=1;" edge="1" parent="1" source="tuQUhaSpqRAPnJcrvdYX-64" target="tuQUhaSpqRAPnJcrvdYX-62">
          <mxGeometry relative="1" as="geometry" />
        </mxCell>
        <mxCell id="tuQUhaSpqRAPnJcrvdYX-64" value="slave2" style="ellipse;whiteSpace=wrap;html=1;aspect=fixed;fillColor=#d5e8d4;strokeColor=#82b366;" vertex="1" parent="1">
          <mxGeometry x="1081.5" y="662" width="80" height="80" as="geometry" />
        </mxCell>
        <mxCell id="tuQUhaSpqRAPnJcrvdYX-66" value="主从复制" style="text;html=1;strokeColor=none;fillColor=none;align=center;verticalAlign=middle;whiteSpace=wrap;rounded=0;" vertex="1" parent="1">
          <mxGeometry x="940.5" y="633" width="75" height="16" as="geometry" />
        </mxCell>
        <mxCell id="tuQUhaSpqRAPnJcrvdYX-67" value="主从复制" style="text;html=1;strokeColor=none;fillColor=none;align=center;verticalAlign=middle;whiteSpace=wrap;rounded=0;" vertex="1" parent="1">
          <mxGeometry x="1028.5" y="632" width="75" height="16" as="geometry" />
        </mxCell>
        <mxCell id="tuQUhaSpqRAPnJcrvdYX-69" style="edgeStyle=orthogonalEdgeStyle;rounded=0;orthogonalLoop=1;jettySize=auto;html=1;exitX=0.5;exitY=1;exitDx=0;exitDy=0;dashed=1;entryX=0.5;entryY=0;entryDx=0;entryDy=0;" edge="1" parent="1" source="tuQUhaSpqRAPnJcrvdYX-79" target="tuQUhaSpqRAPnJcrvdYX-47">
          <mxGeometry relative="1" as="geometry">
            <mxPoint x="944" y="342" as="targetPoint" />
            <Array as="points">
              <mxPoint x="1223" y="343" />
              <mxPoint x="945" y="343" />
            </Array>
          </mxGeometry>
        </mxCell>
        <mxCell id="tuQUhaSpqRAPnJcrvdYX-70" style="edgeStyle=orthogonalEdgeStyle;rounded=0;orthogonalLoop=1;jettySize=auto;html=1;exitX=0.5;exitY=1;exitDx=0;exitDy=0;dashed=1;" edge="1" parent="1" source="tuQUhaSpqRAPnJcrvdYX-79" target="tuQUhaSpqRAPnJcrvdYX-45">
          <mxGeometry relative="1" as="geometry" />
        </mxCell>
        <mxCell id="tuQUhaSpqRAPnJcrvdYX-71" style="edgeStyle=orthogonalEdgeStyle;rounded=0;orthogonalLoop=1;jettySize=auto;html=1;exitX=0.5;exitY=1;exitDx=0;exitDy=0;dashed=1;entryX=0.5;entryY=0;entryDx=0;entryDy=0;" edge="1" parent="1" source="tuQUhaSpqRAPnJcrvdYX-79" target="tuQUhaSpqRAPnJcrvdYX-49">
          <mxGeometry relative="1" as="geometry">
            <mxPoint x="747" y="352" as="targetPoint" />
            <Array as="points">
              <mxPoint x="1223" y="343" />
              <mxPoint x="1038" y="343" />
            </Array>
            <mxPoint x="1116" y="4" as="sourcePoint" />
          </mxGeometry>
        </mxCell>
        <mxCell id="tuQUhaSpqRAPnJcrvdYX-115" style="edgeStyle=orthogonalEdgeStyle;rounded=0;orthogonalLoop=1;jettySize=auto;html=1;exitX=0.5;exitY=1;exitDx=0;exitDy=0;entryX=0.5;entryY=1;entryDx=0;entryDy=0;dashed=1;" edge="1" parent="1" source="tuQUhaSpqRAPnJcrvdYX-79" target="tuQUhaSpqRAPnJcrvdYX-113">
          <mxGeometry relative="1" as="geometry" />
        </mxCell>
        <mxCell id="tuQUhaSpqRAPnJcrvdYX-116" style="edgeStyle=orthogonalEdgeStyle;rounded=0;orthogonalLoop=1;jettySize=auto;html=1;exitX=0.5;exitY=1;exitDx=0;exitDy=0;entryX=0.5;entryY=1;entryDx=0;entryDy=0;dashed=1;" edge="1" parent="1" source="tuQUhaSpqRAPnJcrvdYX-79" target="tuQUhaSpqRAPnJcrvdYX-114">
          <mxGeometry relative="1" as="geometry" />
        </mxCell>
        <mxCell id="tuQUhaSpqRAPnJcrvdYX-120" style="edgeStyle=orthogonalEdgeStyle;rounded=0;orthogonalLoop=1;jettySize=auto;html=1;exitX=0.5;exitY=1;exitDx=0;exitDy=0;entryX=0.5;entryY=0;entryDx=0;entryDy=0;dashed=1;" edge="1" parent="1" source="tuQUhaSpqRAPnJcrvdYX-79" target="tuQUhaSpqRAPnJcrvdYX-56">
          <mxGeometry relative="1" as="geometry">
            <Array as="points">
              <mxPoint x="1223" y="483" />
              <mxPoint x="941" y="483" />
            </Array>
          </mxGeometry>
        </mxCell>
        <mxCell id="tuQUhaSpqRAPnJcrvdYX-121" style="edgeStyle=orthogonalEdgeStyle;rounded=0;orthogonalLoop=1;jettySize=auto;html=1;exitX=0.5;exitY=1;exitDx=0;exitDy=0;entryX=0.5;entryY=0;entryDx=0;entryDy=0;dashed=1;" edge="1" parent="1" source="tuQUhaSpqRAPnJcrvdYX-79" target="tuQUhaSpqRAPnJcrvdYX-59">
          <mxGeometry relative="1" as="geometry">
            <Array as="points">
              <mxPoint x="1223" y="483" />
              <mxPoint x="1031" y="483" />
            </Array>
          </mxGeometry>
        </mxCell>
        <mxCell id="tuQUhaSpqRAPnJcrvdYX-79" value="redis-operator" style="rounded=1;whiteSpace=wrap;html=1;fillColor=#b1ddf0;strokeColor=#10739e;" vertex="1" parent="1">
          <mxGeometry x="1155" y="120" width="135" height="55" as="geometry" />
        </mxCell>
        <mxCell id="tuQUhaSpqRAPnJcrvdYX-80" value="2 从节点强制切换为主节点" style="text;html=1;strokeColor=none;fillColor=none;align=center;verticalAlign=middle;whiteSpace=wrap;rounded=0;" vertex="1" parent="1">
          <mxGeometry x="1069" y="341" width="86" height="37" as="geometry" />
        </mxCell>
        <mxCell id="tuQUhaSpqRAPnJcrvdYX-81" value="redis集群" style="text;html=1;strokeColor=none;fillColor=none;align=center;verticalAlign=middle;whiteSpace=wrap;rounded=0;" vertex="1" parent="1">
          <mxGeometry x="1013" y="229" width="60" height="30" as="geometry" />
        </mxCell>
        <mxCell id="tuQUhaSpqRAPnJcrvdYX-82" value="redis集群" style="text;html=1;strokeColor=none;fillColor=none;align=center;verticalAlign=middle;whiteSpace=wrap;rounded=0;" vertex="1" parent="1">
          <mxGeometry x="1041" y="522" width="55" height="17" as="geometry" />
        </mxCell>
        <mxCell id="tuQUhaSpqRAPnJcrvdYX-83" value="redis集群" style="text;html=1;strokeColor=none;fillColor=none;align=center;verticalAlign=middle;whiteSpace=wrap;rounded=0;" vertex="1" parent="1">
          <mxGeometry x="1414" y="224" width="60" height="30" as="geometry" />
        </mxCell>
        <mxCell id="tuQUhaSpqRAPnJcrvdYX-89" value="&lt;p style=&quot;line-height: 150%;&quot;&gt;new master0&lt;/p&gt;" style="ellipse;whiteSpace=wrap;html=1;aspect=fixed;fillColor=#008a00;fontColor=#ffffff;strokeColor=#005700;" vertex="1" parent="1">
          <mxGeometry x="1264" y="377" width="80" height="80" as="geometry" />
        </mxCell>
        <mxCell id="tuQUhaSpqRAPnJcrvdYX-90" value="&lt;p style=&quot;line-height: 150%;&quot;&gt;new master1&lt;/p&gt;" style="ellipse;whiteSpace=wrap;html=1;aspect=fixed;fillColor=#008a00;fontColor=#ffffff;strokeColor=#005700;" vertex="1" parent="1">
          <mxGeometry x="1359" y="376" width="80" height="80" as="geometry" />
        </mxCell>
        <mxCell id="tuQUhaSpqRAPnJcrvdYX-91" value="&lt;p style=&quot;line-height: 150%;&quot;&gt;slave2&lt;/p&gt;" style="ellipse;whiteSpace=wrap;html=1;aspect=fixed;fillColor=#d5e8d4;strokeColor=#82b366;" vertex="1" parent="1">
          <mxGeometry x="1450" y="374" width="80" height="80" as="geometry" />
        </mxCell>
        <mxCell id="tuQUhaSpqRAPnJcrvdYX-113" value="&lt;p style=&quot;line-height: 150%;&quot;&gt;master0&lt;br&gt;(down)&lt;/p&gt;" style="ellipse;whiteSpace=wrap;html=1;aspect=fixed;fillColor=#a20025;fontColor=#ffffff;strokeColor=#6F0000;" vertex="1" parent="1">
          <mxGeometry x="1264" y="243" width="80" height="80" as="geometry" />
        </mxCell>
        <mxCell id="tuQUhaSpqRAPnJcrvdYX-114" value="&lt;p style=&quot;line-height: 150%;&quot;&gt;master1&lt;br&gt;(down)&lt;/p&gt;" style="ellipse;whiteSpace=wrap;html=1;aspect=fixed;fillColor=#a20025;fontColor=#ffffff;strokeColor=#6F0000;" vertex="1" parent="1">
          <mxGeometry x="1357" y="243" width="80" height="80" as="geometry" />
        </mxCell>
        <mxCell id="tuQUhaSpqRAPnJcrvdYX-117" value="3 拉起旧主节点" style="text;html=1;strokeColor=none;fillColor=none;align=center;verticalAlign=middle;whiteSpace=wrap;rounded=0;" vertex="1" parent="1">
          <mxGeometry x="1273" y="337" width="84" height="37" as="geometry" />
        </mxCell>
        <mxCell id="tuQUhaSpqRAPnJcrvdYX-118" value="&lt;p style=&quot;line-height: 150%;&quot;&gt;new master0&lt;/p&gt;" style="ellipse;whiteSpace=wrap;html=1;aspect=fixed;fillColor=#008a00;fontColor=#ffffff;strokeColor=#005700;" vertex="1" parent="1">
          <mxGeometry x="901" y="662" width="80" height="80" as="geometry" />
        </mxCell>
        <mxCell id="tuQUhaSpqRAPnJcrvdYX-119" value="&lt;p style=&quot;line-height: 150%;&quot;&gt;new master1&lt;/p&gt;" style="ellipse;whiteSpace=wrap;html=1;aspect=fixed;fillColor=#008a00;fontColor=#ffffff;strokeColor=#005700;" vertex="1" parent="1">
          <mxGeometry x="996" y="661" width="80" height="80" as="geometry" />
        </mxCell>
        <mxCell id="tuQUhaSpqRAPnJcrvdYX-122" value="4 旧主节点复制新主节点" style="text;html=1;strokeColor=none;fillColor=none;align=center;verticalAlign=middle;whiteSpace=wrap;rounded=0;" vertex="1" parent="1">
          <mxGeometry x="1041" y="487" width="141.5" height="25" as="geometry" />
        </mxCell>
        <mxCell id="tuQUhaSpqRAPnJcrvdYX-136" value="" style="rounded=0;whiteSpace=wrap;html=1;horizontal=1;fillColor=#fff2cc;strokeColor=#d6b656;" vertex="1" parent="1">
          <mxGeometry x="1256" y="524" width="297" height="236" as="geometry" />
        </mxCell>
        <mxCell id="tuQUhaSpqRAPnJcrvdYX-137" value="slave0" style="ellipse;whiteSpace=wrap;html=1;aspect=fixed;fillColor=#d5e8d4;strokeColor=#82b366;" vertex="1" parent="1">
          <mxGeometry x="1262.5" y="539" width="80" height="80" as="geometry" />
        </mxCell>
        <mxCell id="tuQUhaSpqRAPnJcrvdYX-138" style="edgeStyle=orthogonalEdgeStyle;rounded=0;orthogonalLoop=1;jettySize=auto;html=1;exitX=0.5;exitY=0;exitDx=0;exitDy=0;entryX=0.5;entryY=1;entryDx=0;entryDy=0;dashed=1;endArrow=none;endFill=0;startArrow=classic;startFill=1;" edge="1" parent="1" target="tuQUhaSpqRAPnJcrvdYX-137">
          <mxGeometry relative="1" as="geometry">
            <mxPoint x="1302.5" y="662" as="sourcePoint" />
          </mxGeometry>
        </mxCell>
        <mxCell id="tuQUhaSpqRAPnJcrvdYX-139" value="slave1" style="ellipse;whiteSpace=wrap;html=1;aspect=fixed;fillColor=#d5e8d4;strokeColor=#82b366;" vertex="1" parent="1">
          <mxGeometry x="1351.5" y="539" width="80" height="80" as="geometry" />
        </mxCell>
        <mxCell id="tuQUhaSpqRAPnJcrvdYX-140" style="edgeStyle=orthogonalEdgeStyle;rounded=0;orthogonalLoop=1;jettySize=auto;html=1;exitX=0.5;exitY=0;exitDx=0;exitDy=0;entryX=0.5;entryY=1;entryDx=0;entryDy=0;dashed=1;endArrow=none;endFill=0;startArrow=classic;startFill=1;" edge="1" parent="1" target="tuQUhaSpqRAPnJcrvdYX-139">
          <mxGeometry relative="1" as="geometry">
            <mxPoint x="1391.5" y="662" as="sourcePoint" />
          </mxGeometry>
        </mxCell>
        <mxCell id="tuQUhaSpqRAPnJcrvdYX-141" value="master2" style="ellipse;whiteSpace=wrap;html=1;aspect=fixed;fillColor=#008a00;fontColor=#ffffff;strokeColor=#005700;" vertex="1" parent="1">
          <mxGeometry x="1442.5" y="539" width="80" height="80" as="geometry" />
        </mxCell>
        <mxCell id="tuQUhaSpqRAPnJcrvdYX-142" value="" style="edgeStyle=orthogonalEdgeStyle;rounded=0;orthogonalLoop=1;jettySize=auto;html=1;dashed=1;" edge="1" parent="1" source="tuQUhaSpqRAPnJcrvdYX-143" target="tuQUhaSpqRAPnJcrvdYX-141">
          <mxGeometry relative="1" as="geometry" />
        </mxCell>
        <mxCell id="tuQUhaSpqRAPnJcrvdYX-143" value="slave2" style="ellipse;whiteSpace=wrap;html=1;aspect=fixed;fillColor=#d5e8d4;strokeColor=#82b366;" vertex="1" parent="1">
          <mxGeometry x="1442.5" y="662" width="80" height="80" as="geometry" />
        </mxCell>
        <mxCell id="tuQUhaSpqRAPnJcrvdYX-144" value="主从复制" style="text;html=1;strokeColor=none;fillColor=none;align=center;verticalAlign=middle;whiteSpace=wrap;rounded=0;" vertex="1" parent="1">
          <mxGeometry x="1301.5" y="633" width="75" height="16" as="geometry" />
        </mxCell>
        <mxCell id="tuQUhaSpqRAPnJcrvdYX-145" value="主从复制" style="text;html=1;strokeColor=none;fillColor=none;align=center;verticalAlign=middle;whiteSpace=wrap;rounded=0;" vertex="1" parent="1">
          <mxGeometry x="1389.5" y="633" width="75" height="16" as="geometry" />
        </mxCell>
        <mxCell id="tuQUhaSpqRAPnJcrvdYX-146" value="redis集群" style="text;html=1;strokeColor=none;fillColor=none;align=center;verticalAlign=middle;whiteSpace=wrap;rounded=0;" vertex="1" parent="1">
          <mxGeometry x="1402" y="522" width="55" height="17" as="geometry" />
        </mxCell>
        <mxCell id="tuQUhaSpqRAPnJcrvdYX-147" value="&lt;p style=&quot;line-height: 150%;&quot;&gt;new master0&lt;/p&gt;" style="ellipse;whiteSpace=wrap;html=1;aspect=fixed;fillColor=#008a00;fontColor=#ffffff;strokeColor=#005700;" vertex="1" parent="1">
          <mxGeometry x="1262" y="662" width="80" height="80" as="geometry" />
        </mxCell>
        <mxCell id="tuQUhaSpqRAPnJcrvdYX-148" value="&lt;p style=&quot;line-height: 150%;&quot;&gt;new master1&lt;/p&gt;" style="ellipse;whiteSpace=wrap;html=1;aspect=fixed;fillColor=#008a00;fontColor=#ffffff;strokeColor=#005700;" vertex="1" parent="1">
          <mxGeometry x="1357" y="661" width="80" height="80" as="geometry" />
        </mxCell>
        <mxCell id="tuQUhaSpqRAPnJcrvdYX-149" value="主从复制" style="text;html=1;strokeColor=none;fillColor=none;align=center;verticalAlign=middle;whiteSpace=wrap;rounded=0;" vertex="1" parent="1">
          <mxGeometry x="1486" y="633" width="75" height="16" as="geometry" />
        </mxCell>
        <mxCell id="tuQUhaSpqRAPnJcrvdYX-150" value="5 集群状态恢复" style="text;html=1;strokeColor=none;fillColor=none;align=center;verticalAlign=middle;whiteSpace=wrap;rounded=0;" vertex="1" parent="1">
          <mxGeometry x="1326.25" y="496" width="141.5" height="25" as="geometry" />
        </mxCell>
      </root>
    </mxGraphModel>
  </diagram>
</mxfile>
